<?xml version="1.0" encoding="UTF-8" standalone="no"?>
<!-- Created with Inkscape (http://www.inkscape.org/) -->

<svg
   width="200mm"
   height="200mm"
   viewBox="0 0 200 200"
   version="1.1"
   id="svg1"
   xmlns="http://www.w3.org/2000/svg"
   xmlns:svg="http://www.w3.org/2000/svg">
  <defs
     id="defs1" />
  <path
     style="fill:#42b883;fill-opacity:1;stroke-width:0.264583"
     id="path17"
     d="m 48.600172,134.01317 c 1.292661,-0.67782 2.349833,-1.70345 3.138027,-2.92973 0.318897,-0.49614 0.631092,-1.00366 0.853482,-1.54991 0.243028,-0.59695 0.356058,-1.23889 0.534085,-1.85833 0.03383,-0.67758 0.141798,-1.35552 0.101473,-2.03274 -0.182152,-3.0591 -1.934212,-5.92721 -4.02273,-8.08288 -0.511545,-0.52799 -1.101675,-0.97372 -1.652511,-1.46059 -3.925596,-2.50895 -7.896831,-6.47957 -12.770932,-5.80478 -1.312624,0.18173 -2.809827,0.7671 -3.958352,1.39648 -0.670298,0.36731 -1.281054,0.83412 -1.921581,1.25119 -1.202259,1.26265 -2.280362,2.14431 -2.915095,3.84602 -0.338065,0.90635 -0.468056,1.88291 -0.576908,2.8441 -0.396199,3.49855 0.466874,6.01738 1.38687,9.32369 1.564412,4.7456 3.271734,9.4575 5.262832,14.043 1.249182,2.87687 1.72072,3.74745 3.095839,6.53178 1.829681,3.70008 3.929825,7.38499 4.81584,11.4622 0.478883,2.20369 0.361889,2.75133 0.351473,4.93885 -0.133025,0.71993 -0.199417,1.45544 -0.399071,2.15981 -0.592191,2.08924 -1.846453,3.8625 -3.390104,5.35941 -1.274815,1.23621 -2.026822,1.66524 -3.482528,2.66943 -2.341001,1.37604 -4.802222,2.67052 -7.478056,3.25779 -1.746186,0.38325 -2.309595,0.3144 -4.11553,0.37122 -2.313271,-0.009 -4.594204,-0.42301 -6.744866,-1.29038 -0.788197,-0.31788 -3.031613,-1.53493 -2.294087,-1.11261 8.249013,4.72357 8.265781,5.0115 4.496834,1.73498 -0.616377,-0.7029 -1.284829,-1.36335 -1.849131,-2.10871 -1.597656,-2.11027 -2.854536,-4.65341 -3.198093,-7.30497 -0.297359,-2.29501 0.0073,-2.79972 0.487574,-4.99593 0.332704,-0.71255 0.585258,-1.46834 0.998112,-2.13764 1.410562,-2.28675 4.235661,-4.31272 6.942184,-4.64817 0.644925,-0.0799 1.299226,0.0358 1.94884,0.0537 0.611994,0.14489 1.252224,0.20069 1.835984,0.4347 0.560511,0.22468 2.094788,1.20084 1.557333,0.92553 -2.445515,-1.25273 -4.736852,-2.82854 -7.283994,-3.85904 -0.513803,-0.20787 0.73106,0.84191 1.01011,1.3208 0.703851,1.20792 0.664875,1.69303 0.889454,3.02581 0.570476,0.78062 1.140951,1.56125 1.711427,2.34188 0,0 5.462078,2.83578 5.462078,2.83578 v 0 c 0.647716,-0.22947 1.295432,-0.45895 1.943148,-0.68843 -0.171945,-1.55579 -0.09957,-2.01999 -0.770777,-3.48152 -1.943735,-4.2324 -6.74578,-5.34043 -10.776821,-7.73509 -0.503743,-0.29925 -1.069392,-0.49738 -1.638687,-0.63599 -0.606926,-0.14776 -1.24097,-0.14412 -1.861455,-0.21618 -0.705305,0.0449 -1.419932,0.0118 -2.115915,0.13463 -3.1027924,0.5474 -6.0937456,2.46099 -7.7647338,5.15496 -0.4515866,0.72804 -0.7096725,1.55958 -1.0645087,2.33937 -0.5397166,2.21823 -0.9115979,3.02547 -0.7645218,5.35287 0.175372,2.77516 1.3176108,5.45194 2.8784421,7.71869 0.5417137,0.78672 1.1965376,1.48923 1.7948066,2.23385 5.0473276,4.86558 2.161496,2.38729 13.3950966,8.76727 2.098437,1.19179 5.004909,1.9464 7.401754,2.16012 0.729274,0.065 1.46417,0.0219 2.196253,0.0328 2.065033,-0.10683 2.422028,-0.0229 4.392187,-0.50855 2.746758,-0.67707 5.19684,-2.11034 7.541074,-3.64914 1.443803,-1.06619 2.318502,-1.61422 3.562745,-2.92818 0.524618,-0.55401 1.002307,-1.1537 1.445739,-1.7746 0.465023,-0.65115 0.93046,-1.31177 1.274397,-2.03423 0.833604,-1.75103 0.804309,-2.70005 1.058611,-4.60398 -0.04894,-0.87284 -0.03029,-1.75212 -0.146828,-2.61853 -0.262742,-1.95335 -0.844216,-3.84502 -1.514115,-5.69026 -1.136274,-3.12988 -2.685391,-6.06457 -4.311163,-8.96298 -1.329156,-2.49188 -2.181328,-4.00473 -3.370662,-6.58279 -2.07645,-4.501 -3.692898,-9.18699 -5.212726,-13.89907 -0.310292,-1.04823 -0.679204,-2.08087 -0.930881,-3.1447 -0.622109,-2.62962 -0.951095,-5.62393 0.02003,-8.23031 0.589542,-1.58226 1.497772,-2.37161 2.585112,-3.58285 0.543753,-0.41287 1.046522,-0.88618 1.631265,-1.23861 1.116189,-0.67273 2.299152,-1.07357 3.600637,-1.16761 0.573006,-0.0414 2.146528,0.48134 1.720853,0.0955 -1.660049,-1.5046 -3.790669,-2.39105 -5.643414,-3.65078 -0.571117,-0.38832 1.196829,0.68954 1.795243,1.0343 0.593365,0.45746 1.226129,0.86793 1.780092,1.37239 2.09667,1.90929 4.051962,4.62501 4.328216,7.52633 0.05731,0.60189 -0.03683,1.20867 -0.05525,1.813 -0.180718,0.53612 -0.288044,1.10289 -0.542157,1.60837 -0.854488,1.69975 -2.551325,2.99777 -4.38884,3.416 z" />
  <path
     style="fill:#42b883;fill-opacity:1;stroke-width:0.264583"
     id="path18"
     d="m 41.450733,167.10735 c -0.434829,1.45474 -0.14605,0.14043 -0.145851,2.03658 2.27e-4,2.1669 -0.316413,1.07632 0.09735,3.5344 0.08561,0.50863 0.893419,3.68122 1.025194,4.20546 0.312288,0.67468 0.554919,1.38621 0.936863,2.02405 2.867385,4.7885 9.546207,7.46981 13.828149,9.57562 0.667036,0.32805 1.476399,0.28891 2.217701,0.23396 0.739089,-0.0548 1.434816,-0.37191 2.152224,-0.55787 0.671515,-0.42966 1.406853,-0.773 2.014545,-1.289 1.464622,-1.24362 2.478593,-2.86168 3.443478,-4.49191 0.538266,-0.90943 1.047954,-1.83734 1.508323,-2.78858 0.68706,-1.41965 1.798135,-4.2628 2.399192,-5.76339 0.75139,-2.20101 1.502399,-4.40187 2.214192,-6.61604 0.278249,-0.86555 0.415652,-1.65333 1.084643,-2.28721 -3.524297,-1.76485 -6.913184,-3.83101 -10.57289,-5.29453 -0.311679,-0.12464 -0.121452,0.66051 -0.197337,0.9875 -0.362095,1.56027 -0.394573,1.32492 -0.749614,3.04656 -0.500978,2.42932 -0.441704,2.44404 -0.726639,4.98065 -0.05863,3.43876 -0.03017,7.5573 2.346994,10.34274 0.36176,0.42389 0.821751,0.75294 1.232625,1.12942 3.734642,2.09411 7.378084,4.35989 11.203922,6.28233 0.460862,0.23158 1.027004,0.14078 1.542454,0.12258 1.603447,-0.0566 3.276547,-0.62958 4.483727,-1.70759 0.386239,-0.34491 0.664636,-0.79425 0.996953,-1.19137 -0.49748,-0.87091 -0.99496,-1.74182 -1.49244,-2.61273 0,0 -3.139771,-1.96467 -3.139771,-1.96467 v 0 c -1.237864,-0.2575 -2.475728,-0.515 -3.713589,-0.7725 -0.564462,0.19397 -1.128109,0.39031 -1.693383,0.58189 -0.901642,0.30558 -2.086986,0.75541 -3.059004,0.8582 -0.479036,0.0506 -0.968015,0.0526 -1.445054,-0.0143 -3.293194,-0.46187 -10.35962,-5.76747 6.937642,4.66139 -0.448511,-0.28927 -0.939789,-0.52111 -1.345538,-0.86782 -2.092791,-1.7883 -3.104489,-4.70321 -3.375456,-7.36007 -0.08579,-0.84113 -0.03666,-1.69059 -0.055,-2.53589 0.278025,-1.99295 0.304321,-2.78755 0.881679,-4.68098 0.16292,-0.5343 0.395883,-1.04489 0.610595,-1.56056 0.167309,-0.40183 0.335121,-0.80452 0.535128,-1.19112 0.123785,-0.23927 0.65654,-0.53024 0.433858,-0.68185 -3.259328,-2.21907 -6.806514,-3.98264 -10.209773,-5.97396 0.08031,0.0761 0.216307,0.12039 0.24093,0.22823 0.155654,0.68179 -0.103844,1.75763 -0.211217,2.35726 -0.412578,2.30404 -0.901925,4.59619 -1.591649,6.8355 -0.311616,0.93527 -0.58048,1.88589 -0.934844,2.80582 -0.650539,1.68878 -1.756206,4.06033 -2.715551,5.60907 -0.958191,1.54689 -1.950958,2.89528 -3.460311,3.94079 -0.584319,0.40476 -1.273646,0.63153 -1.910469,0.94729 -0.664652,0.0746 -1.326311,0.2636 -1.993955,0.22383 -0.68348,-0.0407 -2.544416,-0.87901 -2.001475,-0.46186 2.127758,1.6348 4.509936,2.9182 6.867122,4.20022 0.683252,0.37161 -1.248815,-0.93177 -1.822741,-1.45669 -1.853451,-1.69515 -1.668057,-1.71025 -2.976475,-3.80377 -0.376462,-0.7487 -0.818713,-1.4678 -1.129387,-2.24611 -0.278027,-0.69652 -0.402659,-1.44519 -0.629396,-2.16006 -0.237559,-0.74898 -0.500465,-1.48977 -0.763122,-2.23033 -0.227177,-0.64051 -0.502301,-1.26432 -0.706271,-1.9126 -0.136742,-0.43461 -0.168775,-0.89845 -0.314039,-1.3303 -0.131429,-0.39072 -0.3414,-0.75045 -0.512098,-1.12568 z" />
  <path
     style="fill:#42b883;fill-opacity:1;stroke-width:0.264583"
     id="path19"
     d="m 75.205065,148.41158 c -0.05836,-0.2661 0.125884,-0.53708 0.07203,-0.79902 -0.02307,-0.11217 -0.524153,-1.04323 -0.612198,-1.09804 -9.65327,-6.00918 -6.192663,-5.65191 -10.921741,-5.95115 -1.884889,0.49181 -3.014792,1.43672 -3.949718,3.14621 -0.249545,0.45628 -0.486733,0.92363 -0.657638,1.41481 -0.177146,0.5091 -0.25431,1.04767 -0.381463,1.5715 -0.01722,0.98855 -0.239461,2.27335 0.573606,3.10858 1.688198,1.73422 5.580316,3.2529 7.447706,4.13381 0,0 0.279633,0.10865 0.279633,0.10865 v 0 c 0.681556,0.17969 1.345522,0.44961 2.044668,0.53908 0.139713,0.0179 0.397843,-0.0987 0.353004,-0.23226 -1.428305,-4.2533 -0.370678,2.18248 -0.971661,-2.4358 0.08703,-0.45873 0.124849,-0.92959 0.261099,-1.37618 0.40336,-1.32211 1.500301,-3.00054 2.96086,-3.31467 0.270626,-0.0582 0.553622,0.003 0.830431,0.004 3.785095,1.54511 0.976511,0.43748 -8.022346,-4.90581 -0.209174,-0.1242 0.435906,0.22623 0.619456,0.38589 0.153998,0.13395 0.237468,0.33369 0.377983,0.48173 0.740437,0.78006 0.396153,0.1456 0.7302,0.92346 z" />
  <path
     style="fill:#42b883;fill-opacity:1;stroke-width:0.264583"
     id="path20"
     d="m 82.212862,184.26789 c 0.259916,-0.006 0.524713,0.0313 0.779745,-0.0192 0.800603,-0.1587 1.521672,-0.62092 2.191954,-1.04835 1.326811,-0.84607 1.980935,-1.34341 3.147444,-2.4628 0.579141,-0.55575 1.11057,-1.15917 1.665856,-1.73876 5.036963,-6.28099 -1.657461,2.04756 3.355837,-4.12775 1.600184,-1.97107 1.452179,-1.95695 3.189574,-3.68992 0.465484,-0.4643 0.924028,-0.9417 1.446281,-1.34108 0.395457,-0.30241 0.860335,-0.50119 1.290502,-0.75178 3.767545,-0.26896 2.569115,0.004 -6.529691,-4.01553 -0.370473,-0.16365 0.603162,0.56594 0.78374,0.92845 0.276347,0.55478 0.429858,1.1669 0.561666,1.77251 0.393644,1.80865 0.275063,2.50125 0.25123,4.36178 -0.07068,3.21399 -0.44536,6.46473 -1.486305,9.51935 -2.857257,3.07768 -0.685565,0.5855 10.231645,5.42005 0.22055,0.0977 -0.24482,-0.43168 -0.26936,-0.67165 -0.0505,-0.49396 0.001,-0.99453 0.0484,-1.48883 0.17963,-1.88571 0.38095,-2.35036 0.86332,-4.27748 1.13707,-3.0618 2.5176,-6.11399 4.77773,-8.52907 1.1835,-1.26464 1.66607,-1.47588 3.04661,-2.38718 0.95009,-0.28913 1.60882,-0.69978 2.59933,-0.28858 0.34161,0.14182 1.19366,0.86102 0.86019,0.701 -2.60984,-1.25235 -4.9817,-3.03233 -7.71358,-3.98966 -0.50523,-0.17705 0.45273,0.97624 0.59058,1.49355 0.16487,0.61871 0.2083,1.26353 0.31245,1.8953 0.13144,2.30311 0.0367,4.6158 -0.35115,6.89205 -0.32307,1.89624 -0.8518,3.76976 -1.36909,5.62013 0.68746,-1.50218 -0.73515,2.0821 -0.79623,1.51491 -0.0357,-0.33155 -0.003,-1.09701 0.29879,-0.95473 3.40228,1.6052 6.33808,4.097 9.7446,5.69319 0.34465,0.1615 -0.0491,-0.76128 -0.0305,-1.14143 0.0308,-0.62857 0.11903,-1.25301 0.17855,-1.87951 0.43169,-2.41704 0.39015,-2.68354 1.21277,-5.10141 0.32992,-0.96972 0.66192,-1.94393 1.10569,-2.86712 0.4428,-0.92117 0.97819,-1.79806 1.5455,-2.64824 1.39896,-2.09651 1.88318,-2.42642 3.60387,-4.16449 1.5757,-1.20631 1.82798,-1.59831 3.63229,-2.27464 0.51071,-0.19144 1.04081,-0.37602 1.58549,-0.40432 0.43857,-0.0228 0.89659,0.065 1.29262,0.25476 0.363,0.17397 1.26769,0.97482 0.90569,0.79877 -2.66777,-1.29739 -5.23809,-2.78627 -7.85714,-4.1794 0.14304,0.46034 0.35368,0.9049 0.4291,1.38101 0.32827,2.07225 -0.2128,4.18985 -0.68999,6.18636 -0.36403,1.52311 -0.77417,3.03482 -1.15699,4.55331 -0.19204,1.46789 -0.49402,2.64484 -0.13649,4.11889 0.14892,0.61394 0.4005,1.21493 0.75287,1.73927 0.37539,0.55861 0.82645,1.10022 1.39614,1.45859 3.38215,2.12759 6.73458,4.36974 10.39948,5.96162 0.91037,0.39543 -1.27866,-1.5184 -1.918,-2.2776 0,0 -0.23631,-0.18481 -0.23631,-0.18481 v 0 c -9.97546,-6.66476 -3.88937,-2.44691 1.80143,0.61507 0.48569,0.26133 -0.92318,-0.6217 -1.29732,-1.02692 -1.51435,-1.64014 -1.60634,-3.35163 -1.50587,-5.47306 0.0951,-0.79059 0.16031,-1.58535 0.28518,-2.37178 0.1267,-0.79797 0.31886,-1.58419 0.46902,-2.37808 0.40338,-2.13256 0.84005,-4.38933 0.79486,-6.5733 -0.0118,-0.56919 -0.11732,-1.13255 -0.17598,-1.69883 -3.06388,-2.05981 -6.07079,-4.20698 -9.19163,-6.17943 -0.31369,-0.19826 -0.69954,-0.29056 -1.07029,-0.30637 -1.45374,-0.062 -3.34465,1.16672 -4.40813,1.99634 -0.62626,0.48855 -1.18003,1.06352 -1.77005,1.59527 -0.60395,0.67158 -1.24602,1.31074 -1.81185,2.01474 -1.41866,1.76506 -2.21546,3.13948 -3.38463,5.08669 -0.53706,0.89448 -1.10316,1.77351 -1.58611,2.69833 -0.79661,1.52545 -1.34191,3.17318 -2.13073,4.70257 -0.25583,0.55483 -0.5225,1.10478 -0.76749,1.66448 -0.1524,0.34818 -0.71219,0.81014 -0.42433,1.05832 3.46631,2.9885 8.84557,9.90936 10.20591,6.07142 0.23105,-0.65188 -0.2812,-1.45063 0.10114,-2.0724 0.10431,-1.03984 0.28716,-2.80583 0.36011,-3.79773 0.0581,-0.79066 0.0852,-1.58336 0.1395,-2.37429 0.16237,-2.36465 0.43017,-4.72636 0.38899,-7.10097 -0.009,-0.15837 -0.11124,-3.38389 -0.43599,-3.65553 -2.82377,-2.36195 -6.01488,-4.25154 -9.12272,-6.22482 -0.3134,-0.199 -0.71274,-0.2517 -1.08396,-0.25579 -1.11381,-0.0123 -1.66586,0.44788 -2.63054,0.95093 -0.50876,0.38552 -1.05863,0.72209 -1.52629,1.15656 -0.52017,0.48324 -0.95865,1.0478 -1.42385,1.58416 -0.5376,0.61984 -1.095459,1.2249 -1.584168,1.88398 -1.526797,2.05903 -2.72338,4.36511 -3.700772,6.7264 -1.337395,2.77752 -0.707157,1.40199 -1.807382,3.91197 -0.188992,0.43116 -0.359119,0.87113 -0.567756,1.29313 -0.150728,0.30487 -0.796796,0.70349 -0.508794,0.88438 3.340497,2.09808 6.952747,3.73738 10.526492,5.40748 0.15327,0.0716 -0.0256,-0.33739 -0.0383,-0.50609 -0.0581,-3.52328 -0.0307,-7.0476 -0.16493,-10.56986 -0.004,-0.0641 -0.27593,-4.33749 -0.29759,-4.57578 -0.0577,-0.6348 -0.10126,-1.27372 -0.22547,-1.89893 -0.83117,-4.1836 -6.907555,-8.1869 -10.658452,-5.7476 -0.400968,0.32796 -0.823547,0.63114 -1.202904,0.98387 -1.081958,1.00602 -1.962544,2.07985 -2.929435,3.19785 -0.563393,0.65145 -1.130811,1.29948 -1.686623,1.9574 -2.568438,3.04029 -0.714815,1.03202 -3.514273,3.91347 -0.584367,0.52256 -1.138648,1.08085 -1.7531,1.56768 -0.96543,0.7649 -2.231948,1.55286 -3.36142,2.07578 -4.50491,2.08567 0.931873,-0.57421 -2.240285,0.78226 -0.15062,0.0644 -0.27055,0.18477 -0.405826,0.27716 z" />
  <path
     style="fill:#35495e;fill-opacity:1;stroke-width:0.312423"
     d="m 115.28468,102.86824 40.5623,87.88498 42.71333,-89.42142 -24.8905,0.61457 -16.28638,34.4165 -16.59366,-33.80191 z"
     id="path22" />
  <path
     style="fill:#42b883;fill-opacity:1;stroke-width:0.264583"
     id="path25"
     d="m 128.97794,172.88679 c 0.46106,-0.42971 1.0052,-0.73682 1.54477,-1.05308 0.28437,-0.1605 0.4642,-0.4554 0.75602,-0.59968 0.25118,-0.16386 -0.0383,0.0169 0.14788,0.16426 0.17192,-0.2354 0.36593,-0.49378 0.44274,-0.78342 0.0259,-0.11138 0.0196,-0.055 -0.13037,0.12192 -0.007,0.009 0.0141,-0.0176 0.0225,-0.025 0.0398,-0.0351 0.0841,-0.0485 0.11831,-0.089 0.11506,-0.13073 0.22696,-0.37323 0.25141,-0.55872 -0.0367,0.12532 -0.33952,0.35939 -0.19206,0.51619 0.009,0.0625 -0.0534,0.0734 -0.09,0.12508 0.11998,-0.21281 0.70858,-0.80108 0.34682,-1.08026 -0.0533,-0.0279 -0.044,-0.0641 -0.0823,-0.0963 -0.0156,-0.0146 -0.0312,-0.0292 -0.0469,-0.0438 -0.33586,0.37952 -0.11392,0.19258 -0.13846,0.13645 -0.0917,-0.22067 0.0875,-0.27266 0.25552,-0.33756 0.0859,-0.0626 0.14125,0.0185 0.23225,0.0431 0.0109,-0.003 0.0218,-0.007 0.0326,-0.0104 0,0 -8.29947,-5.01481 -8.29947,-5.01481 v 0 c 0.0106,-0.003 0.0213,-0.006 0.0319,-0.01 0.0622,0.0239 0.18355,0.0636 0.13263,0.13893 -0.0488,0.16425 -0.11461,0.28237 -0.313,0.18354 -0.25816,0.0358 -0.34861,0.42041 -0.56245,0.51825 -0.0487,-0.006 -0.01,0.006 -0.0809,2.4e-4 -0.0317,-0.008 -0.0623,-0.025 -0.0951,-0.0249 -0.0269,1.4e-4 0.0121,0.11938 -0.0202,0.13243 0.15435,-0.2547 0.3087,-0.5094 0.46305,-0.76411 -0.0484,0.062 -0.11913,0.0836 -0.18446,0.12609 -0.0468,0.0429 -0.10596,0.0398 -0.1559,0.0781 -0.19305,0.1482 -0.33349,0.3933 -0.46516,0.58204 0.0564,0.18666 0.13159,-0.13012 0.11184,-0.0401 -0.13526,0.1316 -0.21845,0.40474 -0.3719,0.47714 0.14379,0.002 0.0392,-0.42633 0.24274,-0.35623 -0.1767,0.12405 -0.35878,0.26201 -0.45795,0.4589 -0.11147,0.2672 -0.39829,0.41114 -0.55576,0.6501 -0.34157,0.46683 -0.68821,0.91972 -1.1667,1.25873 z" />
  <path
     style="fill:#42b883;fill-opacity:1;stroke-width:0.264583"
     id="path26"
     d="m 123.80297,181.71743 c -0.10744,1.01611 -0.0324,2.05748 0.45298,2.97849 0.12499,0.23719 0.29211,0.44966 0.43816,0.6745 0.9402,1.05154 2.21551,1.7265 3.38565,2.48584 0,0 5.03995,2.15631 5.03995,2.15631 v 0 c 0.20505,-0.009 0.41155,-7.9e-4 0.61516,-0.0266 0.70719,-0.0898 0.57933,-0.005 0.3488,-0.54172 -0.77012,-0.96509 -1.27691,-1.88229 -1.29363,-3.14773 z" />
  <path
     style="fill:#42b883;fill-opacity:1;stroke-width:0.264583"
     id="path27"
     d="m 16.790307,154.83974 c 0.456026,0.59456 0.856345,1.24172 1.148869,1.93318 0.07544,0.17833 0.05598,0.42045 0.205696,0.54324 0.787061,0.64549 1.689459,1.13587 2.534188,1.7038 0,0 4.495797,2.13239 4.495797,2.13239 v 0 c 0.726816,0.1633 1.437027,0.53736 2.180448,0.4899 0.21405,-0.0137 -0.112453,-0.41423 -0.180644,-0.61758 -0.247637,-0.73851 -0.606166,-1.42135 -0.974923,-2.10408 z" />
  <path
     style="fill:#1a1a1a;fill-opacity:1;stroke-width:0.264583"
     d="M 67.140971,11.970871 18.820267,95.664785 H 131.41934 L 154.08564,56.40562 H 113.98351 L 95.523174,88.379856 c 0,0 10.626076,2.043846 11.173716,0 0.54765,-2.043845 14.91599,-25.835242 14.91599,-25.835242 h 18.6545 l -13.5994,23.554859 H 45.020884 L 87.867019,11.887789 Z"
     id="path28" />
</svg>
